<svg width="426" height="140" viewBox="0 0 426 140" fill="none" xmlns="http://www.w3.org/2000/svg">
<path d="M411.994 112.224H231.119C223.803 112.224 217.872 106.294 217.872 98.9777V96.1465C217.872 88.8312 223.802 82.8997 231.119 82.8997H338.817H353.56C360.875 82.8997 366.807 76.9696 366.807 69.6529V69.0651C366.807 61.7498 360.877 55.8184 353.56 55.8184H310.859H159.734C152.419 55.8184 146.487 49.8883 146.487 42.5716V39.7403C146.487 32.425 152.417 26.4935 159.734 26.4935H258.451H265.609C272.924 26.4935 278.856 20.5634 278.856 13.2467C278.856 5.93002 272.926 0 265.609 0H13.2466C5.93123 0 0 5.93002 0 13.2467C0 20.5634 5.92985 26.4935 13.2466 26.4935H66.7125H90.8012C98.1165 26.4935 104.048 32.4236 104.048 39.7403V42.5716C104.048 49.8869 98.1179 55.8184 90.8012 55.8184H63.666C56.3507 55.8197 50.4221 61.7498 50.4221 69.0651V69.6529C50.4221 76.9682 56.3523 82.8997 63.669 82.8997H131.771H162.19C169.505 82.8997 175.437 88.8298 175.437 96.1465V98.9777C175.437 106.293 169.507 112.224 162.19 112.224H83.0321H25.8531C18.5378 112.224 12.6065 118.155 12.6065 125.471V126.059C12.6065 133.374 18.5364 139.306 25.8531 139.306H411.994C419.31 139.306 425.241 133.376 425.241 126.059V125.471C425.24 118.156 419.31 112.226 411.994 112.224Z" fill="#C8262B"/>
</svg>
