<svg width="279" height="138" viewBox="0 0 279 138" fill="none" xmlns="http://www.w3.org/2000/svg">
<path d="M278.952 69.0951C278.952 66.1448 277.935 63.4369 276.243 61.283C276.156 61.1741 276.074 61.0616 275.984 60.9551C273.66 58.1886 270.178 56.4271 266.284 56.4271H177.612H145.737C138.741 56.4271 133.069 50.756 133.069 43.759V38.8551C133.069 31.8594 138.74 26.187 145.737 26.187H176.18H177.61H183.535C190.531 26.187 196.203 20.5159 196.203 13.5202C196.203 6.52438 190.532 0.853271 183.535 0.853271H12.7261C5.73029 0.853271 0.0581055 6.52438 0.0581055 13.5202C0.0581055 20.5159 5.72912 26.187 12.7261 26.187H48.4815H60.1272H87.3009C94.2967 26.187 99.9688 31.8582 99.9688 38.8551V43.759C99.9688 50.7548 94.2978 56.4271 87.3009 56.4271H48.4804H40.9211C33.9254 56.4271 28.2532 62.0982 28.2532 69.0951C28.2532 76.0921 33.9242 81.7632 40.9211 81.7632H83.8329C90.8264 81.7655 96.4949 87.4366 96.4949 94.43V99.334C96.4949 106.331 90.8227 112.002 83.8269 112.002H63.8036C63.8024 112.002 63.8014 112.002 63.8002 112.002H25.9024C18.9066 112.002 13.2345 117.673 13.2345 124.67C13.2345 131.666 17.4415 137.338 24.4372 137.338H219.151C226.147 137.338 231.819 131.667 231.819 124.67C231.819 117.673 226.148 112.002 219.151 112.002H192.934C192.933 112.002 192.932 112.002 192.931 112.002H172.908C165.912 112.002 160.239 106.331 160.239 99.334V94.43C160.239 87.4354 165.908 81.7655 172.902 81.7632H266.279C270.175 81.7632 273.656 80.0017 275.979 77.2352C276.264 76.8967 276.535 76.5453 276.783 76.1776C277.238 75.5041 277.631 74.7838 277.95 74.026C278.598 72.5105 278.952 70.845 278.952 69.0951Z" fill="#C8262B"/>
</svg>
