<svg width="62" height="70" viewBox="0 0 62 70" fill="none" xmlns="http://www.w3.org/2000/svg">
<path fill-rule="evenodd" clip-rule="evenodd" d="M22.7 4.80796C18.8 6.87996 15.2 8.65596 15.2 8.65596C15.2 8.95196 25.1 13.688 25.4 13.688C25.7 13.688 26.6 13.096 28.1 12.504L30.5 11.32L32.9 12.8L35.3 13.984L39.5 12.208C45.5 9.54396 46.4 9.24796 46.1 8.95196C46.1 8.95196 43.7 7.76796 37.7 4.51196C34.7 3.03196 32 1.55196 31.4 1.25596C31.1 1.25596 30.5 0.959961 30.5 0.959961C30.5 0.959961 26.9 2.73596 22.7 4.80796ZM4.7 13.984L0.5 16.056V25.528C0.5 30.856 0.5 35 0.5 35C0.5 35 2.6 34.112 5.3 32.928L9.8 30.856V21.384L11.9 22.568C13.7 23.456 15.2 24.344 17 25.232L20 26.712L21.2 26.12C22.1 25.824 22.7 25.528 23.6 24.936C24.2 24.64 25.7 24.048 26.9 23.456C28.1 22.864 29.3 22.272 29.6 22.272C29.9 21.976 27.2 20.792 19.7 16.944C14 13.984 9.5 11.912 9.2 11.912C9.2 11.912 7.1 12.8 4.7 13.984ZM47 14.576C44 15.76 41.6 16.944 41.6 16.944C41.6 16.944 43.1 17.832 45.2 19.016C47 20.2 48.8 21.088 48.8 21.088C48.8 21.088 47 21.976 44.9 22.864C42.8 23.752 37.4 26.12 33.2 28.192L18.5 34.704C14.6 36.48 11.3 37.96 11 38.256C3.5 41.512 1.4 42.696 1.1 42.696C0.8 42.992 0.8 43.88 0.8 48.616V54.24L4.7 56.016L8 58.088L13.4 55.72C16.4 54.536 18.8 53.352 18.8 53.352C18.8 53.352 18.2 53.056 17.6 52.464C17 52.168 15.5 51.28 14.6 50.688C13.7 50.096 12.5 49.504 12.5 49.504C12.2 49.504 12.2 49.208 12.2 49.208C12.2 49.208 14.6 48.024 17.3 46.84C22.7 44.472 27.2 42.4 36.2 38.552C40.4 36.776 44.3 35 48.5 33.224C52.1 31.744 56.3 29.672 57.8 29.08L60.5 27.896V22.272V16.648L56.6 14.576C54.5 13.392 52.7 12.504 52.4 12.504C52.4 12.208 49.7 13.392 47 14.576ZM59 35.296C58.4 35.592 57.2 36.184 56.6 36.48C55.7 36.776 54.2 37.664 53.3 37.96L51.5 38.848V43.88C51.5 46.544 51.5 48.912 51.2 48.912C50.9 48.912 47.3 47.136 43.7 45.064C41 43.584 41 43.584 40.4 43.88C40.1 44.176 38 45.064 35.6 45.952C33.2 46.84 31.4 47.728 31.4 48.024C31.4 48.024 35.9 50.392 41.6 53.352L51.8 58.68L56.3 56.312C58.7 55.128 60.8 53.944 60.8 53.944C61.1 53.648 61.1 35 60.8 35C60.2 34.704 59.6 35 59 35.296ZM34.7 57.2C33.8 57.496 33.2 57.792 32.3 58.088C29.9 58.976 30.5 58.976 27.8 57.792C26 56.904 25.1 56.608 24.8 56.904C24.5 56.904 22.4 58.088 20 58.976C17.6 60.16 15.5 61.048 15.5 61.048C14.6 61.048 16.1 61.936 22.7 65.192L30.5 69.04L33.8 67.56C35.6 66.672 39.2 64.896 41.9 63.712C44.6 62.528 46.7 61.344 46.7 61.344C46.7 61.344 44.6 60.16 41.9 58.976L37.1 56.608L34.7 57.2Z" fill="#E9B668"/>
</svg>
