<svg width="64" height="63" viewBox="0 0 64 63" fill="none" xmlns="http://www.w3.org/2000/svg">
<path d="M13.5223 29.9422V46.5822C13.5223 47.6222 12.7303 48.6623 11.4103 48.6623C10.0903 48.9223 9.03426 48.9223 8.24226 48.9223C6.92226 49.1823 5.33826 48.4023 4.54626 47.1022C3.49026 45.5423 2.69826 43.7223 2.17026 41.9023C-3.63774 25.5222 5.07426 7.84225 21.7063 2.12225C38.0743 -3.59775 56.0263 4.98225 61.8343 21.3623C62.3623 22.6623 62.0983 24.2222 61.0423 25.5222C57.8743 29.4222 53.9143 32.8022 50.2183 35.6623V16.6822C50.2183 15.1222 48.8983 14.0822 47.5783 14.0822H43.0903C41.5063 14.0822 40.4503 15.3822 40.4503 16.6822V39.5623C40.4503 40.3423 39.9223 41.1222 39.1303 41.6423C38.0743 42.1623 37.0183 42.4223 37.0183 42.4223V23.4422C37.0183 21.8822 35.6983 20.8422 34.3783 20.8422H29.8903C28.3063 20.8422 27.2503 22.1422 27.2503 23.4422V43.9823C27.2503 45.0222 26.4583 45.8023 25.4023 46.0623C24.6103 46.3223 24.0823 46.3223 23.5543 46.5822V29.9422C23.5543 28.3822 22.2343 27.3422 20.9143 27.3422H16.4263C14.5783 27.3422 13.5223 28.3822 13.5223 29.9422ZM13.5223 56.7223C27.7783 66.8623 47.5783 63.7423 57.8743 49.9623C61.8343 44.5023 63.9463 38.2622 63.9463 31.5023C63.9463 30.7222 63.9463 30.2022 63.9463 29.4222C52.0663 46.3223 30.6823 54.3823 13.5223 56.7223Z" fill="#E9B668"/>
</svg>
