<svg width="163" height="662" viewBox="0 0 163 662" fill="none" xmlns="http://www.w3.org/2000/svg">
<path d="M92.1299 562.351H89.8965V661.354H92.1299V562.351Z" fill="#E8B667"/>
<path d="M87.5645 562.351H85.3311V661.354H87.5645V562.351Z" fill="#E8B667"/>
<path d="M83.004 562.351H80.7705V661.354H83.004V562.351Z" fill="#E8B667"/>
<path d="M78.4415 562.351H76.208V661.354H78.4415V562.351Z" fill="#E8B667"/>
<path d="M73.8809 562.351H71.6475V661.354H73.8809V562.351Z" fill="#E8B667"/>
<path d="M84.1212 456.359H79.6543V557.745H84.1212V456.359Z" fill="#E8B667"/>
<path d="M132.193 381.515C132.193 409.492 115.196 433.758 90.5013 445.53C89.6498 445.59 88.7982 445.653 87.9392 445.687C122.677 392.391 99.0952 338.377 87.125 317.32C88.2567 317.358 89.3808 317.417 90.5013 317.496C115.2 329.272 132.193 353.537 132.193 381.515Z" fill="#40A54C"/>
<path d="M81.1115 317.274C81.373 317.27 81.6269 317.259 81.8884 317.259C82.0228 317.259 82.1573 317.266 82.288 317.266C93.8623 337.158 118.972 391.997 82.9827 445.745C82.6167 445.749 82.2544 445.767 81.8847 445.767C81.3917 445.767 80.9061 445.745 80.4131 445.737C44.4242 391.974 69.5298 337.165 81.1115 317.274Z" fill="#40A54C"/>
<path d="M30.6641 381.514C30.6641 353.588 47.5979 329.364 72.218 317.566C73.5588 317.457 74.9145 317.379 76.2777 317.33C64.3076 338.388 40.7407 392.386 75.4561 445.671C74.3692 445.622 73.2899 445.551 72.218 445.466C47.5979 433.663 30.6641 409.435 30.6641 381.514Z" fill="#40A54C"/>
<path d="M136.662 381.514C136.662 354.6 121.435 331.011 98.75 318.111C135.116 323.086 162.881 349.573 162.881 381.514C162.881 413.458 135.116 439.942 98.75 444.916C121.435 432.012 136.662 408.427 136.662 381.514Z" fill="#40A54C"/>
<path d="M63.7632 318.298C41.2682 331.243 26.1944 354.735 26.1944 381.514C26.1944 408.293 41.2645 431.785 63.7632 444.73C28.0207 439.318 0.894531 413.085 0.894531 381.514C0.894531 349.943 28.0207 323.706 63.7632 318.298Z" fill="#40A54C"/>
<path d="M64.3948 313.363H99.3828V305.34H64.3948V313.363Z" fill="#424242"/>
<path d="M79.6549 288.108V0.155029H84.1218V288.108C92.7269 289.206 99.3787 296.541 99.3787 305.441V306.102H64.3906V305.441C64.3944 296.541 71.0499 289.21 79.6549 288.108Z" fill="#E8B667"/>
<path d="M63.3911 460.829H100.385V447.903H63.3911V460.829Z" fill="#424242"/>
<path d="M67.8301 511.664C67.8301 519.429 74.1233 525.722 81.888 525.722C89.6528 525.722 95.946 519.429 95.946 511.664C95.946 503.899 89.6528 497.606 81.888 497.606C74.1233 497.606 67.8301 503.899 67.8301 511.664Z" fill="#40A54C"/>
<path d="M73.5557 489.74C73.5557 494.342 77.2868 498.073 81.8881 498.073C86.4894 498.073 90.2206 494.342 90.2206 489.74C90.2206 485.139 86.4894 481.408 81.8881 481.408C77.2868 481.408 73.5557 485.139 73.5557 489.74Z" fill="#40A54C"/>
<path d="M73.5557 534.055C73.5557 538.656 77.2868 542.387 81.8881 542.387C86.4894 542.387 90.2206 538.656 90.2206 534.055C90.2206 529.453 86.4894 525.722 81.8881 525.722C77.2868 525.722 73.5557 529.453 73.5557 534.055Z" fill="#40A54C"/>
<path d="M71.4657 566.958H92.3174V557.747H71.4657V566.958Z" fill="#424242"/>
</svg>
