<svg width="358" height="122" viewBox="0 0 358 122" fill="none" xmlns="http://www.w3.org/2000/svg">
<path d="M357.812 121.379H339.095V83.0086H344.495V115.981H352.414V94.4235V72.866H330.225V121.379H28.0415V72.866H5.85424V115.981H13.7735V83.0086H19.1712V121.379H0.455078V67.4683H33.4392V115.981H324.827V67.4683H357.812V121.379Z" fill="#E8B667"/>
<path d="M357.812 53.965H324.827V5.45364H33.4392V53.965H0.455078V0.0559692H19.1712V38.4247H13.7735V5.45364H5.85424V48.5673H28.0415V0.0559692H330.225V48.5673H352.414V5.45364H344.495V38.4247H339.095V0.0559692H357.812V53.965Z" fill="#E8B667"/>
<path d="M310.767 14.4153H47.499V107.019H310.767V14.4153Z" fill="#AE282D"/>
<path d="M273.177 69.9704C274.848 71.355 276.897 72.9057 279.435 73.9006L280.969 74.5022L280.13 73.0854C278.741 70.7381 276.883 68.9637 275.237 67.5265C273.843 66.3741 272.66 65.5267 271.482 64.8353C271.616 64.6166 271.738 64.3929 271.85 64.1658C272.263 64.3421 272.717 64.5149 273.249 64.7031C274.432 65.081 275.849 65.4759 277.398 65.5267L279.286 65.5877L277.744 64.498C276.478 63.6032 275.109 63.0625 273.922 62.6473C273.4 62.4812 272.938 62.3473 272.5 62.2372C272.558 61.927 272.597 61.6101 272.617 61.2864C273.065 61.2949 273.555 61.2881 274.124 61.2627C275.365 61.1729 276.827 61.0119 278.281 60.4814L280.054 59.8357L278.219 59.3984C276.712 59.0392 275.239 59.046 273.983 59.1019C273.433 59.1426 272.949 59.1917 272.504 59.251C272.443 58.9443 272.361 58.6358 272.26 58.3257C272.68 58.1664 273.134 57.9765 273.655 57.741C274.773 57.1969 276.07 56.5021 277.224 55.4683L278.629 54.2091L276.763 54.487C275.231 54.7158 273.866 55.27 272.721 55.7903C272.222 56.0343 271.792 56.258 271.402 56.4801C271.204 56.1784 270.98 55.8835 270.729 55.5971C271.785 54.7243 272.816 53.6973 274.009 52.3279C275.393 50.6518 276.942 48.5977 277.939 46.0725L278.546 44.532L277.124 45.3777C274.79 46.764 273.011 48.6231 271.567 50.2705C270.433 51.6381 269.567 52.8448 268.874 54.0227C268.66 53.8905 268.441 53.7701 268.218 53.66C268.392 53.2465 268.565 52.7922 268.752 52.2652C269.13 51.0788 269.521 49.6603 269.574 48.1164L269.638 46.2183L268.545 47.7724C267.657 49.035 267.114 50.4043 266.696 51.5924C266.531 52.1059 266.398 52.5652 266.287 52.999C265.982 52.9414 265.667 52.9007 265.343 52.8804C265.352 52.433 265.343 51.95 265.32 51.3941C265.228 50.1535 265.065 48.6892 264.54 47.2385L263.893 45.4522L263.455 47.2995C263.101 48.8011 263.106 50.2738 263.161 51.5347C263.2 52.0686 263.245 52.5414 263.306 52.9838C263.001 53.0431 262.693 53.1244 262.383 53.2244C262.223 52.8058 262.037 52.3618 261.81 51.8601C261.264 50.7433 260.568 49.4451 259.539 48.2944L258.275 46.8775L258.558 48.7553C258.786 50.2806 259.341 51.6449 259.859 52.7956C260.088 53.2651 260.308 53.6888 260.527 54.0769C260.224 54.2735 259.927 54.4989 259.637 54.7514C258.764 53.6939 257.736 52.6635 256.366 51.4687C254.69 50.084 252.636 48.535 250.111 47.5385L248.57 46.9318L249.416 48.3554C250.804 50.6908 252.661 52.4702 254.307 53.9125C255.693 55.0632 256.873 55.9106 258.054 56.6021C257.92 56.8173 257.798 57.0393 257.686 57.2664C257.275 57.0936 256.822 56.9207 256.295 56.736C255.11 56.358 253.69 55.9665 252.148 55.914L250.25 55.8513L251.804 56.9444C253.065 57.8325 254.434 58.3748 255.624 58.7934C256.126 58.9544 256.587 59.0883 257.02 59.1968C256.961 59.5069 256.92 59.8272 256.898 60.1543C256.451 60.1459 255.971 60.1543 255.422 60.178C254.182 60.2696 252.717 60.4323 251.265 60.9576L249.479 61.605L251.328 62.0423C252.828 62.3965 254.302 62.3914 255.563 62.3372C256.083 62.2999 256.559 62.2524 257.002 62.1931C257.063 62.5016 257.144 62.8151 257.248 63.1286C256.827 63.2879 256.38 63.4761 255.893 63.6981C254.775 64.2438 253.477 64.942 252.326 65.9691L250.909 67.235L252.787 66.952C254.312 66.7232 255.678 66.169 256.827 65.6504C257.292 65.425 257.714 65.2047 258.102 64.9844C258.303 65.2928 258.53 65.5928 258.788 65.8843C257.734 66.7554 256.705 67.7825 255.507 69.1484C254.121 70.8195 252.572 72.8702 251.577 75.4072L250.975 76.9393L252.392 76.1004C254.739 74.7107 256.514 72.8532 257.951 71.2059C259.102 69.8128 259.949 68.6315 260.64 67.4537C260.861 67.5893 261.088 67.7147 261.318 67.8265C261.144 68.2383 260.971 68.6908 260.784 69.2213C260.405 70.4043 260.012 71.8228 259.961 73.3718L259.9 75.2581L260.99 73.7158C261.883 72.4532 262.423 71.0822 262.84 69.8924C263.005 69.3755 263.139 68.9146 263.247 68.4807C263.559 68.54 263.883 68.579 264.211 68.601C264.203 69.0484 264.21 69.5349 264.235 70.0958C264.323 71.3364 264.486 72.799 265.016 74.2548L265.662 76.0275L266.098 74.1921C266.457 72.6854 266.448 71.2143 266.392 69.9551C266.352 69.4094 266.304 68.9315 266.243 68.4875C266.555 68.4265 266.867 68.3434 267.181 68.24C267.34 68.6604 267.53 69.1111 267.762 69.6264C268.306 70.7432 269.001 72.0414 270.034 73.1955L271.294 74.6005L271.016 72.7346C270.787 71.2025 270.233 69.8382 269.713 68.6925C269.472 68.1994 269.248 67.7723 269.026 67.3791C269.333 67.1774 269.631 66.9486 269.921 66.6944C270.785 67.7435 271.812 68.7739 273.177 69.9704ZM269.567 65.4606C269.07 65.9674 268.535 66.3775 267.977 66.6809L267.303 66.9842C266.704 67.2266 266.108 67.3842 265.528 67.452L264.788 67.4842C264.147 67.4876 263.533 67.4113 262.967 67.2554L262.267 67.0097C261.745 66.8029 261.244 66.5249 260.776 66.1826L260.371 65.8877L260.013 65.5335C259.503 65.0302 259.093 64.4929 258.795 63.937L258.688 63.7387L258.493 63.2523C258.251 62.6473 258.097 62.0525 258.032 61.4813L258.007 60.7339C258.007 60.0899 258.085 59.4798 258.239 58.9205L258.493 58.2189C258.703 57.6986 258.98 57.2003 259.317 56.7411L259.607 56.3462L259.973 55.9784C260.478 55.4717 261.012 55.0649 261.561 54.7717L262.245 54.4735C262.845 54.2345 263.438 54.0803 264.006 54.0176L264.752 53.9905C265.391 53.9905 265.998 54.0684 266.553 54.2209L267.257 54.4718C267.772 54.6768 268.267 54.9531 268.728 55.2887L269.135 55.5852L269.494 55.9411C269.997 56.4394 270.404 56.9699 270.702 57.5223L271.004 58.1986C271.246 58.7951 271.4 59.3866 271.467 59.9594L271.499 60.7017C271.502 61.3339 271.428 61.9423 271.273 62.5101L271.031 63.21C270.828 63.7269 270.551 64.2268 270.212 64.6946L269.912 65.1081L269.567 65.4606Z" fill="#DBA658"/>
<path d="M290.658 58.6509C295.432 50.9465 293.907 40.683 286.894 34.7157C279.757 28.6451 269.58 28.7739 262.662 34.831C254.96 30.0602 244.696 31.5821 238.729 38.595C232.763 45.6063 232.901 55.9833 238.846 62.8251C234.072 70.5295 235.597 80.793 242.61 86.7603C245.983 89.6295 250.262 91.209 254.656 91.209C254.658 91.209 254.66 91.209 254.66 91.209C259.185 91.209 263.457 89.599 266.838 86.6467C274.633 91.5175 284.699 90.0159 290.773 82.8809C296.741 75.868 296.603 65.4909 290.658 58.6509ZM268.469 80.4117L266.181 78.4678L264.233 80.754C262.061 83.308 259.017 84.8638 255.663 85.1333C252.316 85.4095 249.065 84.3605 246.508 82.1827C243.954 80.01 242.4 76.9662 242.13 73.6139C241.859 70.2617 242.908 67.0095 245.081 64.4555L247.026 62.1675L244.739 60.2185C242.185 58.0459 240.629 55.0021 240.359 51.6498C240.088 48.2993 241.137 45.0453 243.31 42.4913C245.483 39.9373 248.526 38.3832 251.879 38.112C252.226 38.0849 252.57 38.0713 252.916 38.0713C255.929 38.0713 258.737 39.1068 261.037 41.0643L263.327 43.0133L265.276 40.722C269.769 35.4428 277.722 34.8004 283.003 39.295C288.284 43.7878 288.924 51.7413 284.43 57.0222L282.483 59.3118L284.772 61.2591C287.326 63.4318 288.88 66.4739 289.152 69.8261C289.421 73.1784 288.374 76.4307 286.201 78.9847C284.028 81.5387 280.986 83.0928 277.632 83.3623C274.292 83.6402 271.023 82.5877 268.469 80.4117Z" fill="#DBA658"/>
</svg>
