<svg width="61" height="52" viewBox="0 0 61 52" fill="none" xmlns="http://www.w3.org/2000/svg">
<path d="M55.1604 1.14019L2.76839 21.5642C2.76839 21.5642 0.400391 22.4522 0.400391 23.9322C0.696391 25.4122 2.76839 26.3002 2.76839 26.3002L16.0884 30.7402L47.7604 10.6122C47.7604 10.6122 49.5364 9.42819 49.5364 10.6122C49.5364 10.6122 49.8324 10.9082 48.9444 11.7962C48.0564 12.6842 24.0804 34.2922 24.0804 34.2922L22.3044 49.0922C22.8964 49.3882 23.7844 48.7962 23.7844 48.7962L32.3684 41.1002L45.6884 51.4602C49.2404 52.9402 50.7204 49.6842 50.7204 49.6842L60.1924 2.62019C59.6004 -0.931814 55.1604 1.14019 55.1604 1.14019Z" fill="#E9B668"/>
</svg>
